<svg width="1200" height="800" xmlns="http://www.w3.org/2000/svg">
    <style>
        .box { fill: #ffffff; stroke: #333333; stroke-width: 1.5; }
        .line { fill: none; stroke: #333333; stroke-width: 1.5; }
        .text-placeholder { font-family: sans-serif; font-size: 12px; text-anchor: middle; dominant-baseline: middle; }
    </style>

    <g id="family-tree-group">
        <rect id="person_1" class="box" x="550" y="700" width="100" height="50"/>
        <text class="text-placeholder" x="600" y="725">Person</text>

        <path class="line" d="M600,700 V650"/>

        <path class="line" d="M300,625 H900"/>
        <rect id="person_2" class="box" x="250" y="550" width="100" height="50"/>
        <text class="text-placeholder" x="300" y="575">Father</text>
        <rect id="person_3" class="box" x="850" y="550" width="100" height="50"/>
        <text class="text-placeholder" x="900" y="575">Mother</text>
        <path class="line" d="M300,550 V625"/>
        <path class="line" d="M900,550 V625"/>

        <path class="line" d="M150,475 H450"/>
        <path class="line" d="M750,475 H1050"/>

        <rect id="person_4" class="box" x="100" y="400" width="100" height="50"/>
        <text class="text-placeholder" x="150" y="425">Grandfather</text>
        <rect id="person_5" class="box" x="400" y="400" width="100" height="50"/>
        <text class="text-placeholder" x="450" y="425">Grandmother</text>
        <rect id="person_6" class="box" x="700" y="400" width="100" height="50"/>
        <text class="text-placeholder" x="750" y="425">Grandfather</text>
        <rect id="person_7" class="box" x="1000" y="400" width="100" height="50"/>
        <text class="text-placeholder" x="1050" y="425">Grandmother</text>
        <path class="line" d="M150,400 V475"/>
        <path class="line" d="M450,400 V475"/>
        <path class="line" d="M750,400 V475"/>
        <path class="line" d="M1050,400 V475"/>

        <path class="line" d="M75,325 H225"/>
        <path class="line" d="M375,325 H525"/>
        <path class="line" d="M675,325 H825"/>
        <path class="line" d="M975,325 H1125"/>

        <rect id="person_8" class="box" x="25" y="250" width="100" height="50"/>
        <rect id="person_9" class="box" x="175" y="250" width="100" height="50"/>
        <rect id="person_10" class="box" x="325" y="250" width="100" height="50"/>
        <rect id="person_11" class="box" x="475" y="250" width="100" height="50"/>
        <rect id="person_12" class="box" x="625" y="250" width="100" height="50"/>
        <rect id="person_13" class="box" x="775" y="250" width="100" height="50"/>
        <rect id="person_14" class="box" x="925" y="250" width="100" height="50"/>
        <rect id="person_15" class="box" x="1075" y="250" width="100" height="50"/>
        <path class="line" d="M75,250 V325"/><text class="text-placeholder" x="75" y="275">G-Grand</text>
        <path class="line" d="M225,250 V325"/><text class="text-placeholder" x="225" y="275">G-Grand</text>
        <path class="line" d="M375,250 V325"/><text class="text-placeholder" x="375" y="275">G-Grand</text>
        <path class="line" d="M525,250 V325"/><text class="text-placeholder" x="525" y="275">G-Grand</text>
        <path class="line" d="M675,250 V325"/><text class="text-placeholder" x="675" y="275">G-Grand</text>
        <path class="line" a="M825,250 V325"/><text class="text-placeholder" x="825" y="275">G-Grand</text>
        <path class="line" d="M975,250 V325"/><text class="text-placeholder" x="975" y="275">G-Grand</text>
        <path class="line" d="M1125,250 V325"/><text class="text-placeholder" x="1125" y="275">G-Grand</text>
    </g>
</svg>